HIERARCHY
ROOT SpineBase
{
  OFFSET 0.000000 0.000000 0.000000
  CHANNELS 6 Xposition Yposition Zposition Zrotation Xrotation Yrotation
  JOINT SpineMid
  {
    OFFSET 0.000000 31.327971 0.000000
    CHANNELS 3 Zrotation Xrotation Yrotation
    JOINT SpineShoulder
    {
      OFFSET -0.100886 23.258559 -0.954804
      CHANNELS 3 Zrotation Xrotation Yrotation
      JOINT Neck
      {
        OFFSET -0.093280 7.697507 -0.688778
        CHANNELS 3 Zrotation Xrotation Yrotation
        JOINT Head
        {
          OFFSET -4.972428 10.704832 3.252256
          CHANNELS 3 Zrotation Xrotation Yrotation
          End Site
          {
            OFFSET 0 0 0
          }
        }
      }
      JOINT ShoulderLeft
      {
        OFFSET -10.496605 -4.982638 15.193112
        CHANNELS 3 Zrotation Xrotation Yrotation
        JOINT ElbowLeft
        {
          OFFSET -3.902766 -29.043171 7.221230
          CHANNELS 3 Zrotation Xrotation Yrotation
          JOINT WristLeft
          {
            OFFSET -15.627082 -9.447039 -26.014193
            CHANNELS 3 Zrotation Xrotation Yrotation
            JOINT HandLeft
            {
              OFFSET -7.888317 0.876163 -8.224198
              CHANNELS 3 Zrotation Xrotation Yrotation
              JOINT HandTipLeft
              {
                OFFSET -2.524466 -0.121972 -2.061742
                CHANNELS 3 Zrotation Xrotation Yrotation
                End Site
                {
                  OFFSET 0 0 0
                }
              }
              JOINT ThumbLeft
              {
                OFFSET 3.975082 5.498758 -6.560558
                CHANNELS 3 Zrotation Xrotation Yrotation
                End Site
                {
                  OFFSET 0 0 0
                }
              }
            }
          }
        }
      }
      JOINT ShoulderRight
      {
        OFFSET 7.276887 -2.490166 -14.486675
        CHANNELS 3 Zrotation Xrotation Yrotation
        JOINT ElbowRight
        {
          OFFSET -0.301905 -22.730120 -7.615707
          CHANNELS 3 Zrotation Xrotation Yrotation
          JOINT WristRight
          {
            OFFSET -22.216516 -9.741628 3.306762
            CHANNELS 3 Zrotation Xrotation Yrotation
            JOINT HandRight
            {
              OFFSET -7.786915 -1.114458 1.682875
              CHANNELS 3 Zrotation Xrotation Yrotation
              JOINT HandTipRight
              {
                OFFSET -7.228718 -1.596547 1.093831
                CHANNELS 3 Zrotation Xrotation Yrotation
                End Site
                {
                  OFFSET 0 0 0
                }
              }
              JOINT ThumbRight
              {
                OFFSET -1.125693 2.762708 0.409423
                CHANNELS 3 Zrotation Xrotation Yrotation
                End Site
                {
                  OFFSET 0 0 0
                }
              }
            }
          }
        }
      }
    }
  }
  JOINT HipLeft
  {
    OFFSET -3.468430 -0.040347 1.532276
    CHANNELS 3 Zrotation Xrotation Yrotation
    JOINT KneeLeft
    {
      OFFSET -1.084989 -33.782571 2.522322
      CHANNELS 3 Zrotation Xrotation Yrotation
      JOINT AnkleLeft
      {
        OFFSET 9.081875 -33.613066 2.135299
        CHANNELS 3 Zrotation Xrotation Yrotation
        JOINT FootLeft
        {
          OFFSET -9.680147 -3.282822 -9.208168
          CHANNELS 3 Zrotation Xrotation Yrotation
          End Site
          {
            OFFSET 0 0 0
          }
        }
      }
    }
  }
  JOINT HipRight
  {
    OFFSET 1.949686 2.476513 -9.303438
    CHANNELS 3 Zrotation Xrotation Yrotation
    JOINT KneeRight
    {
      OFFSET 9.740544 -33.661196 -6.316563
      CHANNELS 3 Zrotation Xrotation Yrotation
      JOINT AnkleRight
      {
        OFFSET 10.745112 -34.748573 -0.450099
        CHANNELS 3 Zrotation Xrotation Yrotation
        JOINT FootRight
        {
          OFFSET -9.914198 -3.217765 -9.117901
          CHANNELS 3 Zrotation Xrotation Yrotation
          End Site
          {
            OFFSET 0 0 0
          }
        }
      }
    }
  }
}
MOTION
Frames: 9
Frame Time: 0.033333
61.469976 71.469499 319.065802 -0.000000 0.000000 63.433853 -0.000000 0.000000 -63.433853 -0.000000 0.000000 0.000000 -0.000000 0.000000 0.000000 0.000000 0.000000 0.000000 -0.000000 0.000000 0.000000 -0.000000 0.000000 0.000000 -0.000000 0.000000 0.000000 -0.000000 0.000000 0.000000 0.000000 0.000000 0.000000 0.000000 0.000000 0.000000 -0.000000 0.000000 0.000000 -0.000000 0.000000 0.000000 -0.000000 0.000000 0.000000 -0.000000 0.000000 0.000000 0.000000 0.000000 0.000000 0.000000 0.000000 0.000000 -0.000000 0.000000 -63.433853 -0.000000 0.000000 0.000000 -0.000000 0.000000 0.000000 0.000000 0.000000 0.000000 -0.000000 0.000000 -63.433853 -0.000000 0.000000 0.000000 -0.000000 0.000000 0.000000 0.000000 0.000000 0.000000
61.433720 71.469493 319.073672 -0.028018 -0.031458 63.639163 0.040628 -0.011136 -63.639167 -0.000000 0.000000 0.000000 -0.000000 0.000000 0.000000 0.000000 0.000000 0.000000 -0.000000 0.000000 0.000000 -0.000000 0.000000 0.000000 -2.471844 2.368272 -2.990038 3.195211 -2.767836 5.649214 0.000000 0.000000 0.000000 0.000000 0.000000 0.000000 -0.000000 0.000000 0.000000 -0.952438 -0.305669 0.364021 -2.504215 0.275187 -4.395601 3.634366 0.155238 4.828484 0.000000 0.000000 0.000000 0.000000 0.000000 0.000000 0.040628 -0.011136 -63.639167 -0.000000 0.000000 0.000000 -0.000000 0.000000 0.000000 0.000000 0.000000 0.000000 0.040628 -0.011136 -63.639167 -0.000000 0.000000 0.000000 -0.000000 0.000000 0.000000 0.000000 0.000000 0.000000
61.400960 71.467981 319.079449 -0.049864 -0.054522 63.811784 0.070931 -0.020684 -63.811795 -0.000000 0.000000 0.000000 -0.000000 0.000000 0.000000 0.000000 0.000000 0.000000 -0.000000 0.000000 0.000000 -0.000000 0.000000 0.000000 -3.926493 3.866275 -5.112019 4.852450 -4.035966 9.496855 0.000000 0.000000 0.000000 0.000000 0.000000 0.000000 -0.000000 0.000000 0.000000 -1.653002 -0.480882 0.511067 -5.726268 0.757509 -9.246183 7.625660 0.699806 10.029435 0.000000 0.000000 0.000000 0.000000 0.000000 0.000000 0.070931 -0.020684 -63.811795 -0.000000 0.000000 0.000000 -0.000000 0.000000 0.000000 0.000000 0.000000 0.000000 0.070931 -0.020684 -63.811795 -0.000000 0.000000 0.000000 -0.000000 0.000000 0.000000 0.000000 0.000000 0.000000
61.371696 71.464962 319.083133 -0.065534 -0.069185 63.951480 0.090935 -0.028496 -63.951497 -0.000000 0.000000 0.000000 -0.000000 0.000000 0.000000 0.000000 0.000000 0.000000 -0.000000 0.000000 0.000000 -0.164595 0.598206 -0.526620 -4.399761 3.869598 -6.040911 4.871680 -4.054983 11.412424 0.000000 0.000000 0.000000 0.000000 0.000000 0.000000 -0.000000 0.000000 0.000000 -2.185230 -0.554246 0.489484 -8.970908 1.478205 -13.972450 11.379232 1.554960 15.041997 0.000000 0.000000 0.000000 0.000000 0.000000 0.000000 0.090935 -0.028496 -63.951497 -0.000000 0.000000 0.000000 -0.000000 0.000000 0.000000 0.000000 0.000000 0.000000 0.090935 -0.028496 -63.951497 -0.000000 0.000000 0.000000 -0.000000 0.000000 0.000000 0.000000 0.000000 0.000000
61.345928 71.460437 319.084724 -0.075023 -0.075442 64.058063 0.100660 -0.034461 -64.058082 -0.000000 0.000000 0.000000 -0.000000 0.000000 0.000000 0.000000 0.000000 0.000000 -0.000000 0.000000 0.000000 -0.332269 1.229406 -1.078145 -4.114640 3.016486 -6.324044 3.288552 -2.950297 11.433798 0.000000 0.000000 0.000000 0.000000 0.000000 0.000000 0.910074 -0.244530 -0.299981 -3.506128 -0.313793 0.633599 -11.289483 2.187813 -17.580430 14.021958 2.366873 18.896653 0.000000 0.000000 0.000000 0.000000 0.000000 0.000000 0.100660 -0.034461 -64.058082 -0.000000 0.000000 0.000000 -0.000000 0.000000 0.000000 0.000000 0.000000 0.000000 0.100660 -0.034461 -64.058082 -0.000000 0.000000 0.000000 -0.000000 0.000000 0.000000 0.000000 0.000000 0.000000
61.323656 71.454406 319.084223 -0.078329 -0.073290 64.131395 0.100121 -0.038504 -64.131411 -0.000000 0.000000 0.000000 -0.000000 0.000000 0.000000 0.000000 0.000000 0.000000 -0.000000 0.000000 0.000000 -0.548163 2.080171 -1.816567 -3.051563 1.159115 -5.821143 0.247414 -0.726041 9.744897 0.000000 0.000000 0.000000 0.000000 0.000000 0.000000 1.205927 -0.278422 -0.397810 -4.124443 -0.191093 0.418039 -11.929972 2.478682 -19.153899 14.856229 2.665974 20.705857 0.000000 0.000000 0.000000 0.000000 0.000000 0.000000 0.100121 -0.038504 -64.131411 -0.000000 0.000000 0.000000 -0.000000 0.000000 0.000000 0.000000 0.000000 0.000000 0.100121 -0.038504 -64.131411 -0.000000 0.000000 0.000000 -0.000000 0.000000 0.000000 0.000000 0.000000 0.000000
61.303973 71.445973 319.090608 -0.071949 -0.067828 64.155820 0.092408 -0.035185 -64.155834 -0.000000 0.000000 0.000000 -0.000000 0.000000 0.000000 0.000000 0.000000 0.000000 -0.000000 0.000000 0.000000 -0.824106 3.379957 -3.017197 -0.527331 -2.497306 -4.022543 -5.197227 3.641654 6.367644 0.000000 0.000000 0.000000 0.000000 0.000000 0.000000 1.637241 -0.300833 -0.540874 -4.966391 0.101706 -0.175339 -7.979226 1.802864 -16.619883 11.738720 1.603090 18.702267 0.000000 0.000000 0.000000 0.000000 0.000000 0.000000 0.092408 -0.035185 -64.155834 -0.000000 0.000000 0.000000 -0.000000 0.000000 0.000000 0.000000 0.000000 0.000000 0.092408 -0.035185 -64.155834 -0.000000 0.000000 0.000000 -0.000000 0.000000 0.000000 0.000000 0.000000 0.000000
61.290891 71.435126 319.087221 -0.056794 -0.046518 64.132147 0.066636 -0.030808 -64.132152 -0.000000 0.000000 0.000000 -0.000000 0.000000 0.000000 0.000000 0.000000 0.000000 -0.368990 -0.934114 0.030698 -0.736104 5.725260 -4.290732 2.789770 -6.591427 -1.062744 -11.539960 9.470700 1.170403 0.000000 0.000000 0.000000 0.000000 0.000000 0.000000 1.984932 -0.315288 -0.656216 -5.553534 0.460192 -0.887613 -5.687171 0.954530 -13.290457 9.396700 0.764893 16.491104 0.000000 0.000000 0.000000 0.000000 0.000000 0.000000 0.066636 -0.030808 -64.132152 -0.000000 0.000000 0.000000 -0.000000 0.000000 0.000000 0.000000 0.000000 0.000000 0.066636 -0.030808 -64.132152 -0.000000 0.000000 0.000000 -0.000000 0.000000 0.000000 0.000000 0.000000 0.000000
61.282792 71.423000 319.075943 -0.037610 -0.015847 64.100754 0.030683 -0.026911 -64.100752 -0.000000 0.000000 0.000000 -0.000000 0.000000 0.000000 0.000000 0.000000 0.000000 -0.464938 -1.126433 0.031107 -0.931077 7.359356 -5.473595 6.526471 -10.572361 2.207248 -15.728881 14.337089 -4.184527 0.000000 0.000000 0.000000 0.000000 0.000000 0.000000 2.369155 -0.263443 -0.785759 -5.946820 0.782727 -1.589874 -3.133114 0.170440 -9.316854 6.285171 0.068456 12.710176 0.000000 0.000000 0.000000 0.000000 0.000000 0.000000 0.030683 -0.026911 -64.100752 -0.000000 0.000000 0.000000 -0.000000 0.000000 0.000000 0.000000 0.000000 0.000000 0.030683 -0.026911 -64.100752 -0.000000 0.000000 0.000000 -0.000000 0.000000 0.000000 0.000000 0.000000 0.000000
